<?xml version="1.0" encoding="utf-8"?>
<!-- Generator: Adobe Illustrator 22.0.1, SVG Export Plug-In . SVG Version: 6.00 Build 0)  -->
<svg version="1.1" id="camera_1_" xmlns="http://www.w3.org/2000/svg" xmlns:xlink="http://www.w3.org/1999/xlink" x="0px" y="0px"
	 viewBox="0 0 500 500" style="enable-background:new 0 0 500 500;" xml:space="preserve">
<style type="text/css">
	.st0{fill:#C9C9C9;}
	.st1{fill:#353535;}
	.st2{fill:#AAAAAA;}
	.st3{fill:#232323;}
	.st4{fill:#848484;}
	.st5{fill:none;stroke:#000000;stroke-width:14.5614;stroke-linecap:round;stroke-linejoin:round;}
	.st6{filter:url(#Adobe_OpacityMaskFilter);}
	.st7{fill:#FFFFFF;}
	.st8{mask:url(#mask-2_1_);fill:#FFCA36;}
	.st9{filter:url(#Adobe_OpacityMaskFilter_1_);}
	.st10{mask:url(#mask-2_2_);fill:#E8B434;}
	.st11{filter:url(#Adobe_OpacityMaskFilter_2_);}
	.st12{mask:url(#mask-2_3_);fill:none;stroke:#000000;stroke-width:14.5614;stroke-linecap:round;stroke-linejoin:round;}
	.st13{filter:url(#Adobe_OpacityMaskFilter_3_);}
	.st14{mask:url(#mask-2_4_);fill:none;stroke:#000000;stroke-width:14.5614;stroke-linecap:round;stroke-linejoin:round;}
	.st15{filter:url(#Adobe_OpacityMaskFilter_4_);}
	.st16{mask:url(#mask-2_5_);fill:none;stroke:#000000;stroke-width:14.5614;stroke-linecap:round;stroke-linejoin:round;}
	.st17{filter:url(#Adobe_OpacityMaskFilter_5_);}
	.st18{mask:url(#mask-2_6_);fill:none;stroke:#000000;stroke-width:14.5614;stroke-linecap:round;stroke-linejoin:round;}
	.st19{filter:url(#Adobe_OpacityMaskFilter_6_);}
	.st20{mask:url(#mask-2_7_);fill:none;stroke:#000000;stroke-width:14.5614;stroke-linecap:round;stroke-linejoin:round;}
</style>
<title>camera</title>
<desc>Created with Sketch.</desc>
<g id="Party">
	<g id="camera">
		<g transform="translate(1.000000, 43.000000)">
			<path id="Fill-1" class="st0" d="M449.2,152.7h-67.5h-67.1c-18.8-12.8-41.5-20.4-66-20.4s-47.2,7.5-66,20.4H7.3v-51.3
				c0-8.7,7.1-15.8,15.8-15.8h451c8.7,0,15.8,7.1,15.8,15.8v51.3H449.2z"/>
			<path id="Fill-3" class="st1" d="M144.9,85.6H59.6V62.7c0-9.3,7.5-16.8,16.8-16.8h51.6c9.3,0,16.8,7.5,16.8,16.8V85.6z"/>
			<path id="Fill-5" class="st1" d="M449.2,152.7H490v239.1c0,8.7-7.1,15.8-15.8,15.8h-451c-8.7,0-15.8-7.1-15.8-15.8V152.7h175.4"
				/>
			<path id="Fill-7" class="st2" d="M474.1,85.6h-23.3c8.7,0,15.8,7.1,15.8,15.8v51.3H490v-51.3C490,92.6,482.9,85.6,474.1,85.6"/>
			<path id="Fill-9" class="st3" d="M466.7,152.7v239.1c0,8.7-7.1,15.8-15.8,15.8h23.3c8.7,0,15.8-7.1,15.8-15.8V152.7H466.7z"/>
			<path id="Fill-11" class="st4" d="M365.5,249.1c0,64.5-52.3,116.7-116.9,116.7c-64.6,0-116.9-52.3-116.9-116.7
				s52.3-116.7,116.9-116.7C313.2,132.3,365.5,184.6,365.5,249.1"/>
			<path id="Stroke-13" class="st5" d="M449.2,152.7H490v239.1c0,8.7-7.1,15.8-15.8,15.8h-451c-8.7,0-15.8-7.1-15.8-15.8V152.7
				h175.4"/>
			<path id="Stroke-15" class="st5" d="M314.6,152.7h67.1"/>
			<path id="Stroke-17" class="st5" d="M365.5,249.1c0,64.5-52.3,116.7-116.9,116.7c-64.6,0-116.9-52.3-116.9-116.7
				s52.3-116.7,116.9-116.7C313.2,132.3,365.5,184.6,365.5,249.1z"/>
			<path id="Fill-19" class="st3" d="M327.7,249.1c0,43.6-35.4,78.9-79,78.9c-43.6,0-79-35.3-79-78.9s35.4-78.9,79-78.9
				C292.3,170.1,327.7,205.5,327.7,249.1"/>
			<path id="Stroke-21" class="st5" d="M327.7,249.1c0,43.6-35.4,78.9-79,78.9c-43.6,0-79-35.3-79-78.9s35.4-78.9,79-78.9
				C292.3,170.1,327.7,205.5,327.7,249.1z"/>
			<path id="Stroke-23" class="st5" d="M449.2,152.7H490v-51.3c0-8.7-7.1-15.8-15.8-15.8h-451c-8.7,0-15.8,7.1-15.8,15.8v51.3h175.4
				c18.8-12.8,41.5-20.4,66-20.4s47.2,7.5,66,20.4h67.1"/>
			<path id="Stroke-25" class="st5" d="M365.5,249.1c0,64.5-52.3,116.7-116.9,116.7c-64.6,0-116.9-52.3-116.9-116.7
				s52.3-116.7,116.9-116.7C313.2,132.3,365.5,184.6,365.5,249.1z"/>
			<g id="Clip-28">
			</g>
			<defs>
				<filter id="Adobe_OpacityMaskFilter" filterUnits="userSpaceOnUse" x="381.7" y="126.2" width="67.5" height="57.1">
					<feColorMatrix  type="matrix" values="1 0 0 0 0  0 1 0 0 0  0 0 1 0 0  0 0 0 1 0"/>
				</filter>
			</defs>
			<mask maskUnits="userSpaceOnUse" x="381.7" y="126.2" width="67.5" height="57.1" id="mask-2_1_">
				<g class="st6">
					<polygon id="path-1_1_" class="st7" points="0,414.9 497.3,414.9 497.3,0 0,0 					"/>
				</g>
			</mask>
			<polygon id="Fill-27" class="st8" points="381.7,183.3 449.2,183.3 449.2,126.2 381.7,126.2 			"/>
			<defs>
				<filter id="Adobe_OpacityMaskFilter_1_" filterUnits="userSpaceOnUse" x="426.9" y="126.2" width="22.3" height="57.1">
					<feColorMatrix  type="matrix" values="1 0 0 0 0  0 1 0 0 0  0 0 1 0 0  0 0 0 1 0"/>
				</filter>
			</defs>
			<mask maskUnits="userSpaceOnUse" x="426.9" y="126.2" width="22.3" height="57.1" id="mask-2_2_">
				<g class="st9">
					<polygon id="path-1_2_" class="st7" points="0,414.9 497.3,414.9 497.3,0 0,0 					"/>
				</g>
			</mask>
			<polygon id="Fill-29" class="st10" points="426.9,183.3 449.2,183.3 449.2,126.2 426.9,126.2 			"/>
			<defs>
				<filter id="Adobe_OpacityMaskFilter_2_" filterUnits="userSpaceOnUse" x="374.4" y="118.9" width="82.1" height="71.6">
					<feColorMatrix  type="matrix" values="1 0 0 0 0  0 1 0 0 0  0 0 1 0 0  0 0 0 1 0"/>
				</filter>
			</defs>
			<mask maskUnits="userSpaceOnUse" x="374.4" y="118.9" width="82.1" height="71.6" id="mask-2_3_">
				<g class="st11">
					<polygon id="path-1_3_" class="st7" points="0,414.9 497.3,414.9 497.3,0 0,0 					"/>
				</g>
			</mask>
			<polygon id="Stroke-30" class="st12" points="381.7,183.3 449.2,183.3 449.2,126.2 381.7,126.2 			"/>
			<defs>
				<filter id="Adobe_OpacityMaskFilter_3_" filterUnits="userSpaceOnUse" x="52.4" y="38.6" width="99.8" height="54.2">
					<feColorMatrix  type="matrix" values="1 0 0 0 0  0 1 0 0 0  0 0 1 0 0  0 0 0 1 0"/>
				</filter>
			</defs>
			<mask maskUnits="userSpaceOnUse" x="52.4" y="38.6" width="99.8" height="54.2" id="mask-2_4_">
				<g class="st13">
					<polygon id="path-1_4_" class="st7" points="0,414.9 497.3,414.9 497.3,0 0,0 					"/>
				</g>
			</mask>
			<path id="Stroke-31" class="st14" d="M144.9,85.6H59.6V62.7c0-9.3,7.5-16.8,16.8-16.8h51.6c9.3,0,16.8,7.5,16.8,16.8V85.6z"/>
			<defs>
				<filter id="Adobe_OpacityMaskFilter_4_" filterUnits="userSpaceOnUse" x="412.1" y="0" width="14.6" height="54.7">
					<feColorMatrix  type="matrix" values="1 0 0 0 0  0 1 0 0 0  0 0 1 0 0  0 0 0 1 0"/>
				</filter>
			</defs>
			<mask maskUnits="userSpaceOnUse" x="412.1" y="0" width="14.6" height="54.7" id="mask-2_5_">
				<g class="st15">
					<polygon id="path-1_5_" class="st7" points="0,414.9 497.3,414.9 497.3,0 0,0 					"/>
				</g>
			</mask>
			<path id="Stroke-32" class="st16" d="M419.4,47.4V7.3"/>
			<defs>
				<filter id="Adobe_OpacityMaskFilter_5_" filterUnits="userSpaceOnUse" x="357.2" y="26.5" width="39.9" height="38.7">
					<feColorMatrix  type="matrix" values="1 0 0 0 0  0 1 0 0 0  0 0 1 0 0  0 0 0 1 0"/>
				</filter>
			</defs>
			<mask maskUnits="userSpaceOnUse" x="357.2" y="26.5" width="39.9" height="38.7" id="mask-2_6_">
				<g class="st17">
					<polygon id="path-1_6_" class="st7" points="0,414.9 497.3,414.9 497.3,0 0,0 					"/>
				</g>
			</mask>
			<path id="Stroke-33" class="st18" d="M364.4,33.8L389.8,58"/>
			<defs>
				<filter id="Adobe_OpacityMaskFilter_6_" filterUnits="userSpaceOnUse" x="441.7" y="26.5" width="39.9" height="38.7">
					<feColorMatrix  type="matrix" values="1 0 0 0 0  0 1 0 0 0  0 0 1 0 0  0 0 0 1 0"/>
				</filter>
			</defs>
			<mask maskUnits="userSpaceOnUse" x="441.7" y="26.5" width="39.9" height="38.7" id="mask-2_7_">
				<g class="st19">
					<polygon id="path-1_7_" class="st7" points="0,414.9 497.3,414.9 497.3,0 0,0 					"/>
				</g>
			</mask>
			<path id="Stroke-34" class="st20" d="M474.4,33.8L449,58"/>
		</g>
	</g>
</g>
</svg>
